<?xml version="1.0" encoding="UTF-8"?>
<svg id="Layer_1" data-name="Layer 1" xmlns="http://www.w3.org/2000/svg" viewBox="0 0 356.69 292.68">
  <defs>
    <style>
      .cls-1 {
        fill: #813baf;
      }

      .cls-2 {
        fill: #65b375;
      }
    </style>
  </defs>
  <path class="cls-2" d="M190.51,193.97c-2.35.44-4.36-.19-6.18-3.11l-7.38-11.86c-28.33-45.51-68.15-89.64-115.89-98.34.22,1.16.79,1.31,1.05,1.93.63,1.51,1.64,2.84,2.73,4.17l8.86,10.8c5.58,6.8,16.54,22.01,21.09,29.56l5.56,9.22,6.28,10.81,4.88,9.43c12.58,24.32,22.86,52.2,29.12,79.92.78,3.46,1.72,6.41,1.76,9.81-3.34.6-6.48.1-9.82-.54l-6.54-1.25c-15.9-3.04-35.66-8.82-49.65-17.98-15.59-10.2-26.9-18.89-38.51-35.51-8.07-11.55-13.85-24.2-18.92-38C7.94,123.06,2.57,79.17.89,46.46l-.54-10.55C-.17,25.88.2,15.96,0,5.8-.04,3.73.69,2.12,1.64,1.1S4.69-.39,6.01.4c12.72,7.69,25.54,10.53,39.51,13.58,29.09,6.35,57.3,13.29,82.8,33.07,7.85,6.09,14.65,13.54,21.05,21.59,5.42,6.82,12.85,19.47,16.75,27.81,12.92,27.68,20.88,66.07,24.4,97.51Z"/>
  <path class="cls-1" d="M62.11,82.59c-.26-.62-.83-.77-1.05-1.93,47.73,8.7,87.56,52.82,115.89,98.34l7.38,11.86c1.82,2.92,3.83,3.55,6.18,3.11s3.56-.98,5.2-3.89l58.72-104.27,21.15-37.61,3.35-6.06c12.3-22.28,30.32-38.58,52.26-41.6,7.48-1.03,14.76-.19,22.37-.34,1.58-.03,2.75,2.36,3.02,3.68.29,1.41,0,3.83-.77,5.28l-14.18,26.7-56.91,106.7-29.81,56.05-3.45,6.32-14.06,26.5-12.96,24.33-11.27,21.22c-5.14,9.68-12.79,16.63-22.41,15.61-10.68-1.13-18.44-10.56-21.05-23.23-9.42-45.72-26.79-98-53.09-132.69l-9.22-12.16c-8.83-11.65-19.34-21.41-29.9-30.57-5.03-4.37-9.96-8.43-15.39-11.34Z"/>
</svg>